<svg width="1200" height="900" viewBox="0 0 1200 900" fill="none" xmlns="http://www.w3.org/2000/svg">
<rect width="1200" height="900" fill="white"/>
<path d="M447.323 696.5L373.823 753.5C719.823 889.5 1319.82 476.5 881.323 180.5L846.823 211C1112.32 387.5 837.323 745 447.323 696.5Z" fill="#122797"/>
<path d="M428.823 390L638.823 157L671.823 128.5L993.823 45L717.323 264.5L859.323 246.5L552.823 499.5L687.823 472.5L170.823 854.5L405.323 589L311.323 601.5L548.823 372.5L428.823 390Z" fill="#122797"/>
<path d="M293.323 717.5C-26.6775 492.5 309.323 108.5 672.323 128.5L638.323 158C340.323 135.5 6.32266 481 338.323 665L293.323 717.5Z" fill="#122797"/>
</svg>
